<svg height="512pt" viewBox="-26 0 512 512" width="512pt" xmlns="http://www.w3.org/2000/svg"><path d="m142.1875 10.300781v501.699219h253.957031c35.527344 0 64.328125-28.800781 64.328125-64.328125v-437.371094c0-5.6875-4.613281-10.300781-10.300781-10.300781h-297.683594c-5.6875 0-10.300781 4.613281-10.300781 10.300781zm0 0" fill="#e3f4ff"/><path d="m460.476562 10.300781v437.375c0 35.519531-28.804687 64.324219-64.332031 64.324219h-29.578125c35.53125 0 64.335938-28.804688 64.335938-64.324219v-437.375c0-5.6875-4.617188-10.300781-10.304688-10.300781h29.578125c5.6875 0 10.300781 4.613281 10.300781 10.300781zm0 0" fill="#bddff4"/><path d="m317.433594 421.492188c5.6875 0 10.300781 4.609374 10.300781 10.300781v15.882812c0 35.523438 28.800781 64.324219 64.324219 64.324219h-318.304688c-35.527344 0-64.328125-28.800781-64.328125-64.328125v-15.878906c0-5.6875 4.609375-10.300781 10.300781-10.300781zm0 0" fill="#9cc6db"/><path d="m231.117188 173.863281c0 10.332031-8.378907 18.707031-18.710938 18.707031s-18.710938-8.375-18.710938-18.707031c0-10.335937 8.378907-18.710937 18.710938-18.710937s18.710938 8.375 18.710938 18.710937zm0 0" fill="#f9b200"/><g fill="#9cc6db"><path d="m299.945312 183.246094h-37.855468c-4.269532 0-7.726563-3.457032-7.726563-7.726563 0-4.265625 3.457031-7.722656 7.726563-7.722656h37.855468c4.269532 0 7.726563 3.457031 7.726563 7.722656 0 4.269531-3.457031 7.726563-7.726563 7.726563zm0 0"/><path d="m394.058594 201.765625h-131.96875c-4.269532 0-7.726563-3.457031-7.726563-7.726563 0-4.265624 3.457031-7.726562 7.726563-7.726562h131.96875c4.269531 0 7.726562 3.460938 7.726562 7.726562 0 4.269532-3.457031 7.726563-7.726562 7.726563zm0 0"/><path d="m262.128906 161.410156c-4.246094 0-7.738281-3.425781-7.765625-7.679687-.027343-4.265625 3.371094-7.746094 7.636719-7.773438h.078125.050781c4.242188 0 7.699219 3.425781 7.726563 7.675781.023437 4.269532-3.414063 7.75-7.679688 7.777344-.015625 0-.03125 0-.046875 0zm0 0"/></g><path d="m231.117188 255.480469c0 10.332031-8.378907 18.710937-18.710938 18.710937s-18.710938-8.378906-18.710938-18.710937 8.378907-18.710938 18.710938-18.710938 18.710938 8.378907 18.710938 18.710938zm0 0" fill="#f9b200"/><path d="m299.945312 264.863281h-37.855468c-4.269532 0-7.726563-3.457031-7.726563-7.722656 0-4.269531 3.457031-7.726563 7.726563-7.726563h37.855468c4.269532 0 7.726563 3.457032 7.726563 7.726563 0 4.265625-3.457031 7.722656-7.726563 7.722656zm0 0" fill="#9cc6db"/><path d="m394.058594 283.382812h-131.96875c-4.269532 0-7.726563-3.457031-7.726563-7.726562 0-4.265625 3.457031-7.726562 7.726563-7.726562h131.96875c4.269531 0 7.726562 3.460937 7.726562 7.726562 0 4.269531-3.457031 7.726562-7.726562 7.726562zm0 0" fill="#9cc6db"/><path d="m262.128906 243.027344c-4.246094 0-7.738281-3.425782-7.765625-7.675782-.027343-4.269531 3.371094-7.75 7.636719-7.777343h.078125.050781c4.242188 0 7.699219 3.429687 7.726563 7.679687.023437 4.265625-3.414063 7.746094-7.679688 7.773438-.015625 0-.03125 0-.046875 0zm0 0" fill="#9cc6db"/><path d="m231.117188 337.097656c0 10.332032-8.378907 18.710938-18.710938 18.710938s-18.710938-8.378906-18.710938-18.710938c0-10.332031 8.378907-18.710937 18.710938-18.710937s18.710938 8.378906 18.710938 18.710937zm0 0" fill="#f9b200"/><path d="m299.945312 346.484375h-37.855468c-4.269532 0-7.726563-3.460937-7.726563-7.726563 0-4.269531 3.457031-7.726562 7.726563-7.726562h37.855468c4.269532 0 7.726563 3.457031 7.726563 7.726562 0 4.265626-3.457031 7.726563-7.726563 7.726563zm0 0" fill="#9cc6db"/><path d="m394.058594 365h-131.96875c-4.269532 0-7.726563-3.457031-7.726563-7.726562 0-4.265626 3.457031-7.722657 7.726563-7.722657h131.96875c4.269531 0 7.726562 3.457031 7.726562 7.722657 0 4.269531-3.457031 7.726562-7.726562 7.726562zm0 0" fill="#9cc6db"/><path d="m262.128906 324.644531c-4.246094 0-7.738281-3.425781-7.765625-7.675781-.027343-4.269531 3.371094-7.75 7.636719-7.777344h.078125.050781c4.242188 0 7.699219 3.429688 7.726563 7.679688.023437 4.265625-3.414063 7.746094-7.679688 7.773437-.015625 0-.03125 0-.046875 0zm0 0" fill="#9cc6db"/><path d="m395.320312 93.523438h-187.980468c-5.6875 0-10.300782-4.613282-10.300782-10.304688v-24.207031c0-5.6875 4.613282-10.300781 10.300782-10.300781h187.980468c5.691407 0 10.300782 4.613281 10.300782 10.300781v24.207031c0 5.691406-4.609375 10.304688-10.300782 10.304688zm0 0" fill="#fd6096"/><path d="m142.222656 287.636719 33.171875 16.492187c3.703125 1.839844 7.746094-1.792968 6.3125-5.671875l-12.847656-34.746093zm0 0" fill="#4e7693"/><path d="m135.089844 285.601562-133.140625-148.222656c-2.804688-3.121094-2.554688-7.929687.574219-10.742187l21.1875-19.03125c3.128906-2.808594 7.9375-2.546875 10.742187.578125l133.140625 148.21875c2.808594 3.128906 2.554688 7.929687-.578125 10.742187l-21.183594 19.03125c-3.132812 2.808594-7.933593 2.554688-10.742187-.574219zm0 0" fill="#c0ff66"/><path d="m135.089844 285.601562-133.140625-148.222656c-2.804688-3.121094-2.554688-7.929687.574219-10.742187l10.59375-9.515625 143.304687 159.539062-10.589844 9.515625c-3.132812 2.808594-7.933593 2.554688-10.742187-.574219zm0 0" fill="#9be058"/><path d="m16.371094 153.433594-14.421875-16.050782c-2.804688-3.125-2.550781-7.933593.578125-10.742187l21.183594-19.03125c3.132812-2.8125 7.9375-2.550781 10.742187.574219l14.421875 16.054687zm0 0" fill="#fd82ac"/></svg>