<svg height="512" viewBox="0 0 512 512" width="512" xmlns="http://www.w3.org/2000/svg"><g id="Flat"><rect fill="#34507b" height="160" rx="16" width="224" x="144" y="24"/><path d="m296 248h-80l16-64h48z" fill="#eaeae8"/><path d="m144 152h224a0 0 0 0 1 0 0v16a16 16 0 0 1 -16 16h-192a16 16 0 0 1 -16-16v-16a0 0 0 0 1 0 0z" fill="#eaeae8"/><path d="m168 48h16v16h-16z" fill="#415e89"/><path d="m168 80h16v48h-16z" fill="#415e89"/><path d="m284 200h-56l4-16h48z" fill="#dfdfdd"/><path d="m200 232h112v16h-112z" fill="#eaeae8"/><path d="m48 472h-24l32-168h32z" fill="#804a32"/><path d="m464 472h24l-32-168h-32z" fill="#804a32"/><path d="m24 248h464v56h-464z" fill="#91563a"/><path d="m160 248h16v56h-16z" fill="#804a32"/><path d="m336 248h16v56h-16z" fill="#804a32"/><path d="m64 248 8 16h48l8-16z" fill="#804a32"/><path d="m304.667 428.333-83.916-37.022 6.498-14.622 83.916 37.023z" fill="#34507b"/><path d="m207 429-6.498-14.621 84.249-37.69 6.498 14.622z" fill="#34507b"/><path d="m187.941 488a11.935 11.935 0 0 1 -11.618-14.669l28.548-121.331h32l-37.48 127.432a11.935 11.935 0 0 1 -11.45 8.568z" fill="#804a32"/><path d="m324.059 488a11.935 11.935 0 0 0 11.618-14.669l-28.548-121.331h-32l37.48 127.432a11.935 11.935 0 0 0 11.45 8.568z" fill="#804a32"/><path d="m280 368h-112l4.8-38.433a32 32 0 0 1 28.856-27.9l38.544-3.5a32 32 0 0 0 28.482-25.593l6.169-30.846a32 32 0 0 1 31.383-25.728h37.766v88a64 64 0 0 1 -64 64z" fill="#34507b"/><path d="m52.077 229.53-27.666-83a8 8 0 0 1 .07-5.264l32-88 15.038 5.468-31.048 85.38 29.2 85.553z" fill="#c7483c"/><g fill="#d65246"><path d="m96 248h-72v-8a16 16 0 0 1 16-16h40a16 16 0 0 1 16 16z"/><path d="m32 160a16 16 0 1 1 16-16 16.019 16.019 0 0 1 -16 16z"/><path d="m120 57.941-45.255 45.255-16.97-39.598-16.971-16.971 22.627-22.627 16.971 16.971z"/><path d="m480 232a15.979 15.979 0 0 1 -16 16h-80a35.682 35.682 0 0 0 0-32h80a16 16 0 0 1 16 16z"/></g><path d="m464 224v16h-77.12a36.006 36.006 0 0 0 0-16z" fill="#f9e4c8"/><path d="m384 184h80a16 16 0 0 1 16 16 16 16 0 0 1 -16 16h-80a35.778 35.778 0 0 0 0-32z" fill="#34507b"/><path d="m464 192v16h-77.12a36.006 36.006 0 0 0 0-16z" fill="#f9e4c8"/><path d="m408 120h48v64h-48z" fill="#d65246"/><path d="m472 176h-16v-16h16v-24h-16v-16h16a16.019 16.019 0 0 1 16 16v24a16.019 16.019 0 0 1 -16 16z" fill="#c7483c"/></g></svg>